<svg width="6" height="7" viewBox="0 0 6 7" fill="none" transform='rotate(0)' xmlns="http://www.w3.org/2000/svg">
<path d="M4.88663 3.02667L2.05996 0.199999C1.99799 0.137513 1.92425 0.0879169 1.84301 0.0540711C1.76177 0.0202253 1.67464 0.00279999 1.58663 0.00279999C1.49862 0.00279999 1.41148 0.0202253 1.33024 0.0540711C1.249 0.0879169 1.17527 0.137513 1.1133 0.199999C0.989128 0.324907 0.919434 0.493875 0.919434 0.669999C0.919434 0.846123 0.989128 1.01509 1.1133 1.14L3.4733 3.5L1.1133 5.86C0.989128 5.98491 0.919434 6.15388 0.919434 6.33C0.919434 6.50612 0.989128 6.67509 1.1133 6.8C1.17559 6.86179 1.24947 6.91067 1.33069 6.94385C1.41192 6.97702 1.49889 6.99384 1.58663 6.99333C1.67437 6.99384 1.76134 6.97702 1.84257 6.94385C1.92379 6.91067 1.99767 6.86179 2.05996 6.8L4.88663 3.97333C4.94911 3.91136 4.99871 3.83762 5.03256 3.75638C5.0664 3.67514 5.08383 3.58801 5.08383 3.5C5.08383 3.41199 5.0664 3.32485 5.03256 3.24361C4.99871 3.16237 4.94911 3.08864 4.88663 3.02667Z" fill="#014E38"/>
</svg>
